  0
SECTION
  2
HEADER
  9
$ACADVER
  1
AC1009
  0
ENDSEC
  0
SECTION
  2
ENTITIES
  0
CIRCLE
  5
90
  8
Layer_0
  62
1
  10
224.476
  20
220.662
  30
0
  40
1
  0
CIRCLE
  5
90
  8
Layer_0
  62
1
  10
224.476
  20
248.662
  30
0
  40
1
  0
CIRCLE
  5
90
  8
Layer_0
  62
1
  10
224.476
  20
248.662
  30
0
  40
1
  0
CIRCLE
  5
90
  8
Layer_0
  62
1
  10
224.476
  20
220.662
  30
0
  40
1
  0
CIRCLE
  5
90
  8
Layer_0
  62
1
  10
210.976
  20
222.912
  30
0
  40
1.5
  0
CIRCLE
  5
90
  8
Layer_0
  62
1
  10
210.976
  20
246.412
  30
0
  40
1.5
  0
POLYLINE
  5
90
  8
Layer_0
  62
1
  66
1
  10
0
  20
0
  30
0
  0
VERTEX
  5
90
  8
Layer_0
  10
206.476
  20
252.162
  0
VERTEX
  5
91
  8
Layer_0
  10
206.476
  20
236.162
  0
VERTEX
  5
92
  8
Layer_0
  10
212.476
  20
236.162
  0
VERTEX
  5
93
  8
Layer_0
  10
212.476
  20
233.162
  0
VERTEX
  5
94
  8
Layer_0
  10
206.476
  20
233.162
  0
VERTEX
  5
95
  8
Layer_0
  10
206.476
  20
217.162
  0
VERTEX
  5
96
  8
Layer_0
  10
230.476
  20
217.162
  0
VERTEX
  5
97
  8
Layer_0
  10
230.476
  20
223.162
  0
VERTEX
  5
98
  8
Layer_0
  10
218.476
  20
223.162
  0
VERTEX
  5
99
  8
Layer_0
  10
218.476
  20
246.162
  0
VERTEX
  5
9a
  8
Layer_0
  10
230.476
  20
246.162
  0
VERTEX
  5
9b
  8
Layer_0
  10
230.476
  20
252.162
  0
VERTEX
  5
9c
  8
Layer_0
  10
206.476
  20
252.162
  0
SEQEND
  0
POLYLINE
  5
9e
  8
Layer_0
  62
1
  66
1
  10
0
  20
0
  30
0
  0
VERTEX
  5
9e
  8
Layer_0
  10
230.476
  20
223.162
  0
VERTEX
  5
9f
  8
Layer_0
  10
218.476
  20
223.162
  0
VERTEX
  5
a0
  8
Layer_0
  10
218.476
  20
246.162
  0
VERTEX
  5
a1
  8
Layer_0
  10
230.476
  20
246.162
  0
VERTEX
  5
a2
  8
Layer_0
  10
230.476
  20
252.162
  0
VERTEX
  5
a3
  8
Layer_0
  10
212.476
  20
252.162
  0
SEQEND
  0
POLYLINE
  5
a5
  8
Layer_0
  62
1
  66
1
  10
0
  20
0
  30
0
  0
VERTEX
  5
a5
  8
Layer_0
  10
230.476
  20
223.162
  0
VERTEX
  5
a6
  8
Layer_0
  10
230.476
  20
217.162
  0
VERTEX
  5
a7
  8
Layer_0
  10
230.476
  20
223.162
  0
SEQEND
  0
POLYLINE
  5
a9
  8
Layer_0
  62
1
  66
1
  10
0
  20
0
  30
0
  0
VERTEX
  5
a9
  8
Layer_0
  10
209.476
  20
243.412
  0
VERTEX
  5
aa
  8
Layer_0
  10
212.476
  20
243.412
  0
VERTEX
  5
ab
  8
Layer_0
  10
212.476
  20
238.412
  0
VERTEX
  5
ac
  8
Layer_0
  10
209.476
  20
238.412
  0
VERTEX
  5
ad
  8
Layer_0
  10
209.476
  20
243.412
  0
SEQEND
  0
POLYLINE
  5
af
  8
Layer_0
  62
1
  66
1
  10
0
  20
0
  30
0
  0
VERTEX
  5
af
  8
Layer_0
  10
209.476
  20
230.912
  0
VERTEX
  5
b0
  8
Layer_0
  10
212.476
  20
230.912
  0
VERTEX
  5
b1
  8
Layer_0
  10
212.476
  20
225.912
  0
VERTEX
  5
b2
  8
Layer_0
  10
209.476
  20
225.912
  0
VERTEX
  5
b3
  8
Layer_0
  10
209.476
  20
230.912
  0
SEQEND
  0
CIRCLE
  5
b5
  8
Layer_0
  62
1
  10
215.976
  20
271.66199
  30
0
  40
3
  0
CIRCLE
  5
b5
  8
Layer_0
  62
1
  10
215.976
  20
271.66199
  30
0
  40
3
  0
CIRCLE
  5
b5
  8
Layer_0
  62
1
  10
215.976
  20
278.16199
  30
0
  40
1
  0
CIRCLE
  5
b5
  8
Layer_0
  62
1
  10
215.976
  20
286.16199
  30
0
  40
1
  0
CIRCLE
  5
b5
  8
Layer_0
  62
1
  10
222.476
  20
271.66199
  30
0
  40
1
  0
CIRCLE
  5
b5
  8
Layer_0
  62
1
  10
209.476
  20
271.66199
  30
0
  40
1
  0
CIRCLE
  5
b5
  8
Layer_0
  62
1
  10
215.976
  20
265.16199
  30
0
  40
1
  0
CIRCLE
  5
b5
  8
Layer_0
  62
1
  10
215.976
  20
257.16199
  30
0
  40
1
  0
POLYLINE
  5
b5
  8
Layer_0
  62
1
  66
1
  10
0
  20
0
  30
0
  0
VERTEX
  5
b5
  8
Layer_0
  10
226.476
  20
289.162
  0
VERTEX
  5
b6
  8
Layer_0
  10
207.476
  20
289.162
  0
VERTEX
  5
b7
  8
Layer_0
  10
206.476
  20
289.162
  0
VERTEX
  5
b8
  8
Layer_0
  10
206.476
  20
254.162
  0
VERTEX
  5
b9
  8
Layer_0
  10
226.476
  20
254.162
  0
VERTEX
  5
ba
  8
Layer_0
  10
226.476
  20
258.412
  0
VERTEX
  5
bb
  8
Layer_0
  10
221.476
  20
258.412
  0
VERTEX
  5
bc
  8
Layer_0
  10
221.476
  20
257.162
  0
VERTEX
  5
bd
  8
Layer_0
  10
218.976
  20
257.162
  0
VERTEX
  5
be
  8
Layer_0
  10
218.976
  20
262.662
  0
VERTEX
  5
bf
  8
Layer_0
  10
221.476
  20
262.662
  0
VERTEX
  5
c0
  8
Layer_0
  10
221.476
  20
261.412
  0
VERTEX
  5
c1
  8
Layer_0
  10
226.476
  20
261.412
  0
VERTEX
  5
c2
  8
Layer_0
  10
226.476
  20
262.912
  0
VERTEX
  5
c3
  8
Layer_0
  10
229.476
  20
262.912
  0
VERTEX
  5
c4
  8
Layer_0
  10
229.476
  20
267.912
  0
VERTEX
  5
c5
  8
Layer_0
  10
226.476
  20
267.912
  0
VERTEX
  5
c6
  8
Layer_0
  10
226.476
  20
275.412
  0
VERTEX
  5
c7
  8
Layer_0
  10
229.476
  20
275.412
  0
VERTEX
  5
c8
  8
Layer_0
  10
229.476
  20
280.412
  0
VERTEX
  5
c9
  8
Layer_0
  10
226.476
  20
280.412
  0
VERTEX
  5
ca
  8
Layer_0
  10
226.476
  20
281.912
  0
VERTEX
  5
cb
  8
Layer_0
  10
221.476
  20
281.912
  0
VERTEX
  5
cc
  8
Layer_0
  10
221.476
  20
280.662
  0
VERTEX
  5
cd
  8
Layer_0
  10
218.976
  20
280.662
  0
VERTEX
  5
ce
  8
Layer_0
  10
218.976
  20
286.162
  0
VERTEX
  5
cf
  8
Layer_0
  10
221.476
  20
286.162
  0
VERTEX
  5
d0
  8
Layer_0
  10
221.476
  20
284.912
  0
VERTEX
  5
d1
  8
Layer_0
  10
226.476
  20
284.912
  0
VERTEX
  5
d2
  8
Layer_0
  10
226.476
  20
289.162
  0
SEQEND
  0
CIRCLE
  5
d4
  8
Layer_0
  62
1
  10
224.476
  20
184.662
  30
0
  40
1
  0
CIRCLE
  5
d4
  8
Layer_0
  62
1
  10
224.476
  20
212.662
  30
0
  40
1
  0
CIRCLE
  5
d4
  8
Layer_0
  62
1
  10
224.476
  20
212.662
  30
0
  40
1
  0
CIRCLE
  5
d4
  8
Layer_0
  62
1
  10
224.476
  20
184.662
  30
0
  40
1
  0
CIRCLE
  5
d4
  8
Layer_0
  62
1
  10
210.976
  20
186.912
  30
0
  40
1.5
  0
CIRCLE
  5
d4
  8
Layer_0
  62
1
  10
210.976
  20
210.412
  30
0
  40
1.5
  0
POLYLINE
  5
d4
  8
Layer_0
  62
1
  66
1
  10
0
  20
0
  30
0
  0
VERTEX
  5
d4
  8
Layer_0
  10
206.476
  20
216.162
  0
VERTEX
  5
d5
  8
Layer_0
  10
206.476
  20
200.162
  0
VERTEX
  5
d6
  8
Layer_0
  10
212.476
  20
200.162
  0
VERTEX
  5
d7
  8
Layer_0
  10
212.476
  20
197.162
  0
VERTEX
  5
d8
  8
Layer_0
  10
206.476
  20
197.162
  0
VERTEX
  5
d9
  8
Layer_0
  10
206.476
  20
181.162
  0
VERTEX
  5
da
  8
Layer_0
  10
230.476
  20
181.162
  0
VERTEX
  5
db
  8
Layer_0
  10
230.476
  20
187.162
  0
VERTEX
  5
dc
  8
Layer_0
  10
218.476
  20
187.162
  0
VERTEX
  5
dd
  8
Layer_0
  10
218.476
  20
210.162
  0
VERTEX
  5
de
  8
Layer_0
  10
230.476
  20
210.162
  0
VERTEX
  5
df
  8
Layer_0
  10
230.476
  20
216.162
  0
VERTEX
  5
e0
  8
Layer_0
  10
206.476
  20
216.162
  0
SEQEND
  0
POLYLINE
  5
e2
  8
Layer_0
  62
1
  66
1
  10
0
  20
0
  30
0
  0
VERTEX
  5
e2
  8
Layer_0
  10
230.476
  20
187.162
  0
VERTEX
  5
e3
  8
Layer_0
  10
218.476
  20
187.162
  0
VERTEX
  5
e4
  8
Layer_0
  10
218.476
  20
210.162
  0
VERTEX
  5
e5
  8
Layer_0
  10
230.476
  20
210.162
  0
VERTEX
  5
e6
  8
Layer_0
  10
230.476
  20
216.162
  0
VERTEX
  5
e7
  8
Layer_0
  10
212.476
  20
216.162
  0
SEQEND
  0
POLYLINE
  5
e9
  8
Layer_0
  62
1
  66
1
  10
0
  20
0
  30
0
  0
VERTEX
  5
e9
  8
Layer_0
  10
230.476
  20
187.162
  0
VERTEX
  5
ea
  8
Layer_0
  10
230.476
  20
181.162
  0
VERTEX
  5
eb
  8
Layer_0
  10
230.476
  20
187.162
  0
SEQEND
  0
POLYLINE
  5
ed
  8
Layer_0
  62
1
  66
1
  10
0
  20
0
  30
0
  0
VERTEX
  5
ed
  8
Layer_0
  10
209.476
  20
207.412
  0
VERTEX
  5
ee
  8
Layer_0
  10
212.476
  20
207.412
  0
VERTEX
  5
ef
  8
Layer_0
  10
212.476
  20
202.412
  0
VERTEX
  5
f0
  8
Layer_0
  10
209.476
  20
202.412
  0
VERTEX
  5
f1
  8
Layer_0
  10
209.476
  20
207.412
  0
SEQEND
  0
POLYLINE
  5
f3
  8
Layer_0
  62
1
  66
1
  10
0
  20
0
  30
0
  0
VERTEX
  5
f3
  8
Layer_0
  10
209.476
  20
194.912
  0
VERTEX
  5
f4
  8
Layer_0
  10
212.476
  20
194.912
  0
VERTEX
  5
f5
  8
Layer_0
  10
212.476
  20
189.912
  0
VERTEX
  5
f6
  8
Layer_0
  10
209.476
  20
189.912
  0
VERTEX
  5
f7
  8
Layer_0
  10
209.476
  20
194.912
  0
SEQEND
  0
CIRCLE
  5
f9
  8
Layer_0
  62
1
  10
220.976
  20
163.662
  30
0
  40
1.5
  0
CIRCLE
  5
f9
  8
Layer_0
  62
1
  10
209.976
  20
163.662
  30
0
  40
1.5
  0
POLYLINE
  5
f9
  8
Layer_0
  62
1
  66
1
  10
0
  20
0
  30
0
  0
VERTEX
  5
f9
  8
Layer_0
  10
206.476
  20
147.562
  0
VERTEX
  5
fa
  8
Layer_0
  10
224.476
  20
147.562
  0
VERTEX
  5
fb
  8
Layer_0
  10
224.476
  20
150.562
  0
VERTEX
  5
fc
  8
Layer_0
  10
219.476
  20
150.562
  0
VERTEX
  5
fd
  8
Layer_0
  10
219.476
  20
149.312
  0
VERTEX
  5
fe
  8
Layer_0
  10
216.976
  20
149.312
  0
VERTEX
  5
ff
  8
Layer_0
  10
216.976
  20
154.812
  0
VERTEX
  5
100
  8
Layer_0
  10
219.476
  20
154.812
  0
VERTEX
  5
101
  8
Layer_0
  10
219.476
  20
153.562
  0
VERTEX
  5
102
  8
Layer_0
  10
224.476
  20
153.562
  0
VERTEX
  5
103
  8
Layer_0
  10
224.476
  20
155.062
  0
VERTEX
  5
104
  8
Layer_0
  10
227.476
  20
155.062
  0
VERTEX
  5
105
  8
Layer_0
  10
227.476
  20
160.062
  0
VERTEX
  5
106
  8
Layer_0
  10
224.476
  20
160.062
  0
VERTEX
  5
107
  8
Layer_0
  10
224.476
  20
167.26201
  0
VERTEX
  5
108
  8
Layer_0
  10
227.476
  20
167.26201
  0
VERTEX
  5
109
  8
Layer_0
  10
227.476
  20
172.26201
  0
VERTEX
  5
10a
  8
Layer_0
  10
224.476
  20
172.26201
  0
VERTEX
  5
10b
  8
Layer_0
  10
224.476
  20
173.76201
  0
VERTEX
  5
10c
  8
Layer_0
  10
219.476
  20
173.76201
  0
VERTEX
  5
10d
  8
Layer_0
  10
219.476
  20
172.51201
  0
VERTEX
  5
10e
  8
Layer_0
  10
216.976
  20
172.51201
  0
VERTEX
  5
10f
  8
Layer_0
  10
216.976
  20
178.01201
  0
VERTEX
  5
110
  8
Layer_0
  10
219.476
  20
178.01201
  0
VERTEX
  5
111
  8
Layer_0
  10
219.476
  20
176.76201
  0
VERTEX
  5
112
  8
Layer_0
  10
224.476
  20
176.76201
  0
VERTEX
  5
113
  8
Layer_0
  10
224.476
  20
179.76201
  0
VERTEX
  5
114
  8
Layer_0
  10
206.476
  20
179.76201
  0
VERTEX
  5
115
  8
Layer_0
  10
206.476
  20
147.562
  0
SEQEND
  0
POLYLINE
  5
117
  8
Layer_0
  62
1
  66
1
  10
0
  20
0
  30
0
  0
VERTEX
  5
117
  8
Layer_0
  10
227.476
  20
172.20699
  0
VERTEX
  5
118
  8
Layer_0
  10
227.4761
  20
172.20699
  0
SEQEND
  0
POLYLINE
  5
11a
  8
Layer_0
  62
1
  66
1
  10
0
  20
0
  30
0
  0
VERTEX
  5
11a
  8
Layer_0
  10
217.976
  20
165.162
  0
VERTEX
  5
11b
  8
Layer_0
  10
217.976
  20
162.162
  0
VERTEX
  5
11c
  8
Layer_0
  10
212.976
  20
162.162
  0
VERTEX
  5
11d
  8
Layer_0
  10
212.976
  20
165.162
  0
VERTEX
  5
11e
  8
Layer_0
  10
217.976
  20
165.162
  0
SEQEND
  0
CIRCLE
  5
120
  8
Layer_0
  62
1
  10
239.159
  20
199.22099
  30
0
  40
3
  0
CIRCLE
  5
120
  8
Layer_0
  62
1
  10
239.159
  20
192.72099
  30
0
  40
1
  0
CIRCLE
  5
120
  8
Layer_0
  62
1
  10
239.159
  20
184.72099
  30
0
  40
1
  0
CIRCLE
  5
120
  8
Layer_0
  62
1
  10
239.14
  20
199.255
  30
0
  40
3
  0
POLYLINE
  5
120
  8
Layer_0
  62
1
  66
1
  10
0
  20
0
  30
0
  0
VERTEX
  5
120
  8
Layer_0
  10
254.58118
  20
190.44162
  42
0.044742314
  0
VERTEX
  5
121
  8
Layer_0
  10
248.55458
  20
195.797
  42
0.083291373
  0
VERTEX
  5
122
  8
Layer_0
  10
249.15762
  20
199.05032
  42
0.044742504
  0
VERTEX
  5
123
  8
Layer_0
  10
256.70313
  20
201.89026
  0
VERTEX
  5
124
  8
Layer_0
  10
256.00281
  20
204.80736
  42
0.044742392
  0
VERTEX
  5
125
  8
Layer_0
  10
247.99054
  20
203.9122
  42
0.083293943
  0
VERTEX
  5
126
  8
Layer_0
  10
245.97629
  20
206.53735
  42
0.044742109
  0
VERTEX
  5
127
  8
Layer_0
  10
248.91467
  20
214.04491
  0
VERTEX
  5
128
  8
Layer_0
  10
246.27823
  20
215.47639
  42
0.044739423
  0
VERTEX
  5
129
  8
Layer_0
  10
241.58228
  20
208.92326
  42
0.083296234
  0
VERTEX
  5
12a
  8
Layer_0
  10
238.28349
  20
209.18295
  42
0.044740697
  0
VERTEX
  5
12b
  8
Layer_0
  10
234.6705
  20
216.39001
  0
VERTEX
  5
12c
  8
Layer_0
  10
231.84258
  20
215.3886
  42
0.044740763
  0
VERTEX
  5
12d
  8
Layer_0
  10
233.57028
  20
207.51398
  42
0.08329825
  0
VERTEX
  5
12e
  8
Layer_0
  10
231.16998
  20
205.23622
  42
0.044740297
  0
VERTEX
  5
12f
  8
Layer_0
  10
223.39655
  20
207.3737
  0
VERTEX
  5
130
  8
Layer_0
  10
222.24849
  20
204.60207
  42
0.044741475
  0
VERTEX
  5
131
  8
Layer_0
  10
229.25659
  20
200.61684
  42
0.083295989
  0
VERTEX
  5
132
  8
Layer_0
  10
229.34323
  20
197.30902
  42
0.044741736
  0
VERTEX
  5
133
  8
Layer_0
  10
222.55321
  20
192.96243
  0
VERTEX
  5
134
  8
Layer_0
  10
223.84474
  20
190.25467
  42
0.044742811
  0
VERTEX
  5
135
  8
Layer_0
  10
231.49582
  20
192.79613
  42
0.09808672
  0
VERTEX
  5
136
  8
Layer_0
  10
234.52368
  20
190.36009
  0
VERTEX
  5
137
  8
Layer_0
  10
237.14694
  20
182.69049
  0
VERTEX
  5
138
  8
Layer_0
  10
237.14694
  20
147.88745
  0
VERTEX
  5
139
  8
Layer_0
  10
252.14694
  20
134.85724
  0
VERTEX
  5
13a
  8
Layer_0
  10
252.14694
  20
145.43106
  0
VERTEX
  5
13b
  8
Layer_0
  10
242.14694
  20
154.11786
  0
VERTEX
  5
13c
  8
Layer_0
  10
242.14694
  20
182.69049
  0
VERTEX
  5
13d
  8
Layer_0
  10
243.99268
  20
190.46683
  42
0.050309081
  0
VERTEX
  5
13e
  8
Layer_0
  10
245.64365
  20
191.60855
  42
0.0025910503
  0
VERTEX
  5
13f
  8
Layer_0
  10
245.72255
  20
191.67636
  42
0.044742866
  0
VERTEX
  5
140
  8
Layer_0
  10
252.88196
  20
187.96924
  0
VERTEX
  5
141
  8
Layer_0
  10
254.58118
  20
190.44162
  0
SEQEND
  0
CIRCLE
  5
143
  8
Layer_0
  62
1
  10
262.73001
  20
164.12399
  30
0
  40
1.4999995
  0
POLYLINE
  5
143
  8
Layer_0
  62
1
  66
1
  10
0
  20
0
  30
0
  0
VERTEX
  5
143
  8
Layer_0
  10
247.10963
  20
172.61673
  42
0.044742314
  0
VERTEX
  5
144
  8
Layer_0
  10
253.24564
  20
167.38707
  42
0.083291373
  0
VERTEX
  5
145
  8
Layer_0
  10
252.70998
  20
164.12196
  42
0.044742504
  0
VERTEX
  5
146
  8
Layer_0
  10
245.22478
  20
161.12668
  0
VERTEX
  5
147
  8
Layer_0
  10
245.98526
  20
158.22467
  42
0.044742392
  0
VERTEX
  5
148
  8
Layer_0
  10
253.97731
  20
159.28525
  42
0.083293943
  0
VERTEX
  5
149
  8
Layer_0
  10
256.04538
  20
156.70229
  42
0.044742109
  0
VERTEX
  5
14a
  8
Layer_0
  10
253.26282
  20
149.1356
  0
VERTEX
  5
14b
  8
Layer_0
  10
255.9283
  20
147.75893
  42
0.044739423
  0
VERTEX
  5
14c
  8
Layer_0
  10
260.48776
  20
154.40773
  42
0.083296234
  0
VERTEX
  5
14d
  8
Layer_0
  10
263.79123
  20
154.21628
  42
0.044740697
  0
VERTEX
  5
14e
  8
Layer_0
  10
267.55243
  20
147.08543
  0
VERTEX
  5
14f
  8
Layer_0
  10
270.35904
  20
148.1451
  42
0.044740763
  0
VERTEX
  5
150
  8
Layer_0
  10
268.46893
  20
155.98232
  42
0.08329825
  0
VERTEX
  5
151
  8
Layer_0
  10
270.82162
  20
158.3092
  42
0.044740297
  0
VERTEX
  5
152
  8
Layer_0
  10
278.6376
  20
156.33286
  0
VERTEX
  5
153
  8
Layer_0
  10
279.72812
  20
159.12762
  42
0.044741475
  0
VERTEX
  5
154
  8
Layer_0
  10
272.63913
  20
162.96715
  42
0.083295989
  0
VERTEX
  5
155
  8
Layer_0
  10
272.48413
  20
166.27246
  42
0.044741736
  0
VERTEX
  5
156
  8
Layer_0
  10
279.18286
  20
170.75847
  0
VERTEX
  5
157
  8
Layer_0
  10
277.83563
  20
173.43895
  42
0.044742811
  0
VERTEX
  5
158
  8
Layer_0
  10
270.23874
  20
170.7399
  42
0.09808672
  0
VERTEX
  5
159
  8
Layer_0
  10
267.16116
  20
173.11282
  0
VERTEX
  5
15a
  8
Layer_0
  10
264.37991
  20
180.72656
  0
VERTEX
  5
15b
  8
Layer_0
  10
263.66055
  20
215.52216
  0
VERTEX
  5
15c
  8
Layer_0
  10
248.39441
  20
228.23952
  0
VERTEX
  5
15d
  8
Layer_0
  10
248.61298
  20
217.66797
  0
VERTEX
  5
15e
  8
Layer_0
  10
258.79041
  20
209.18973
  0
VERTEX
  5
15f
  8
Layer_0
  10
259.38098
  20
180.62321
  0
VERTEX
  5
160
  8
Layer_0
  10
257.69638
  20
172.81039
  42
0.050309081
  0
VERTEX
  5
161
  8
Layer_0
  10
256.06937
  20
171.63478
  42
0.0025910503
  0
VERTEX
  5
162
  8
Layer_0
  10
255.9919
  20
171.56535
  42
0.044742866
  0
VERTEX
  5
163
  8
Layer_0
  10
248.75739
  20
175.12369
  0
VERTEX
  5
164
  8
Layer_0
  10
247.10963
  20
172.61673
  0
SEQEND
  0
CIRCLE
  5
166
  8
Layer_0
  62
1
  10
181
  20
272
  30
0
  40
1.5
  0
CIRCLE
  5
166
  8
Layer_0
  62
1
  10
200
  20
272
  30
0
  40
1.5
  0
CIRCLE
  5
166
  8
Layer_0
  62
1
  10
200
  20
246
  30
0
  40
1.5
  0
CIRCLE
  5
166
  8
Layer_0
  62
1
  10
181
  20
246
  30
0
  40
1.5
  0
CIRCLE
  5
166
  8
Layer_0
  62
1
  10
125.279
  20
250.584
  30
0
  40
1.5
  0
CIRCLE
  5
166
  8
Layer_0
  62
1
  10
151.27901
  20
269.58398
  30
0
  40
1.5
  0
CIRCLE
  5
166
  8
Layer_0
  62
1
  10
151.27901
  20
250.584
  30
0
  40
1.5
  0
CIRCLE
  5
166
  8
Layer_0
  62
1
  10
125.279
  20
269.58398
  30
0
  40
1.5
  0
CIRCLE
  5
166
  8
Layer_0
  62
1
  10
152.27901
  20
260.08398
  30
0
  40
1
  0
CIRCLE
  5
166
  8
Layer_0
  62
1
  10
124.279
  20
260.08398
  30
0
  40
1
  0
CIRCLE
  5
166
  8
Layer_0
  62
1
  10
160.873
  20
138.11099
  30
0
  40
1.5
  0
CIRCLE
  5
166
  8
Layer_0
  62
1
  10
160.873
  20
159.11099
  30
0
  40
1.5
  0
CIRCLE
  5
166
  8
Layer_0
  62
1
  10
187.873
  20
138.11099
  30
0
  40
1.5
  0
CIRCLE
  5
166
  8
Layer_0
  62
1
  10
187.873
  20
159.11099
  30
0
  40
1.5
  0
CIRCLE
  5
166
  8
Layer_0
  62
1
  10
135.60201
  20
173.5
  30
0
  40
1.5
  0
CIRCLE
  5
166
  8
Layer_0
  62
1
  10
136.90199
  20
221.7
  30
0
  40
1.5
  0
CIRCLE
  5
166
  8
Layer_0
  62
1
  10
187.702
  20
206.5
  30
0
  40
1.5
  0
CIRCLE
  5
166
  8
Layer_0
  62
1
  10
187.702
  20
178.60001
  30
0
  40
1.5
  0
CIRCLE
  5
166
  8
Layer_0
  62
1
  10
136.90199
  20
221.7
  30
0
  40
1.5
  0
CIRCLE
  5
166
  8
Layer_0
  62
1
  10
135.60201
  20
173.5
  30
0
  40
1.5
  0
CIRCLE
  5
166
  8
Layer_0
  62
1
  10
187.702
  20
178.60001
  30
0
  40
1.5
  0
CIRCLE
  5
166
  8
Layer_0
  62
1
  10
187.702
  20
206.5
  30
0
  40
1.5
  0
POLYLINE
  5
166
  8
Layer_0
  62
1
  66
1
  10
0
  20
0
  30
0
  0
VERTEX
  5
166
  8
Layer_0
  10
126.77933
  20
253.83334
  0
VERTEX
  5
167
  8
Layer_0
  10
149.77933
  20
253.83333
  0
VERTEX
  5
168
  8
Layer_0
  10
149.77933
  20
266.33333
  0
VERTEX
  5
169
  8
Layer_0
  10
126.77933
  20
266.33334
  0
VERTEX
  5
16a
  8
Layer_0
  10
126.77933
  20
253.83334
  0
SEQEND
  0
POLYLINE
  5
16c
  8
Layer_0
  62
1
  66
1
  10
0
  20
0
  30
0
  0
VERTEX
  5
16c
  8
Layer_0
  10
155.77933
  20
246.08333
  0
VERTEX
  5
16d
  8
Layer_0
  10
155.77933
  20
274.08334
  0
VERTEX
  5
16e
  8
Layer_0
  10
120.77934
  20
274.08334
  0
VERTEX
  5
16f
  8
Layer_0
  10
120.77934
  20
246.08334
  0
VERTEX
  5
170
  8
Layer_0
  10
155.77933
  20
246.08333
  0
SEQEND
  0
POLYLINE
  5
172
  8
Layer_0
  62
1
  66
1
  10
0
  20
0
  30
0
  0
VERTEX
  5
172
  8
Layer_0
  10
104.99999
  20
135
  42
0.41421356
  0
VERTEX
  5
173
  8
Layer_0
  10
109.99999
  20
130
  0
VERTEX
  5
174
  8
Layer_0
  10
200
  20
130
  42
0.41421356
  0
VERTEX
  5
175
  8
Layer_0
  10
205
  20
135
  0
VERTEX
  5
176
  8
Layer_0
  10
205
  20
284.99999
  42
0.41421356
  0
VERTEX
  5
177
  8
Layer_0
  10
200
  20
289.99999
  0
VERTEX
  5
178
  8
Layer_0
  10
110
  20
290
  42
0.41421356
  0
VERTEX
  5
179
  8
Layer_0
  10
105
  20
285
  0
VERTEX
  5
17a
  8
Layer_0
  10
104.99999
  20
135
  0
SEQEND
  0
POLYLINE
  5
17c
  8
Layer_0
  62
1
  66
1
  10
0
  20
0
  30
0
  0
VERTEX
  5
17c
  8
Layer_0
  10
123.241
  20
173.056
  0
VERTEX
  5
17d
  8
Layer_0
  10
123.241
  20
173.05559
  0
SEQEND
  0
CIRCLE
  5
17f
  8
Layer_0
  62
1
  10
239.261
  20
240.5
  30
0
  40
1
  0
CIRCLE
  5
17f
  8
Layer_0
  62
1
  10
239.261
  20
234
  30
0
  40
2.5
  0
CIRCLE
  5
17f
  8
Layer_0
  62
1
  10
239.261
  20
234
  30
0
  40
2.5
  0
CIRCLE
  5
17f
  8
Layer_0
  62
1
  10
239.261
  20
240.5
  30
0
  40
1
  0
CIRCLE
  5
17f
  8
Layer_0
  62
1
  10
239.261
  20
246.5
  30
0
  40
1
  0
CIRCLE
  5
17f
  8
Layer_0
  62
1
  10
239
  20
271.5
  30
0
  40
1
  0
CIRCLE
  5
17f
  8
Layer_0
  62
1
  10
239
  20
277.5
  30
0
  40
1
  0
CIRCLE
  5
17f
  8
Layer_0
  62
1
  10
239
  20
284
  30
0
  40
2.5
  0
POLYLINE
  5
17f
  8
Layer_0
  62
1
  66
1
  10
0
  20
0
  30
0
  0
VERTEX
  5
17f
  8
Layer_0
  10
233.5
  20
229
  0
VERTEX
  5
180
  8
Layer_0
  10
244.5
  20
229
  42
0.41421359
  0
VERTEX
  5
181
  8
Layer_0
  10
246.5
  20
231
  0
VERTEX
  5
182
  8
Layer_0
  10
246.5
  20
287
  42
0.41421356
  0
VERTEX
  5
183
  8
Layer_0
  10
244.5
  20
289
  0
VERTEX
  5
184
  8
Layer_0
  10
233.5
  20
289
  42
0.41421359
  0
VERTEX
  5
185
  8
Layer_0
  10
231.5
  20
287
  0
VERTEX
  5
186
  8
Layer_0
  10
231.5
  20
231
  42
0.41421363
  0
VERTEX
  5
187
  8
Layer_0
  10
233.5
  20
229
  0
SEQEND
  0
CIRCLE
  5
189
  8
Layer_0
  62
1
  10
169.74974
  20
203.25
  30
0
  40
3.875
  0
CIRCLE
  5
189
  8
Layer_0
  62
1
  10
141.49974
  20
210.75
  30
0
  40
1
  0
CIRCLE
  5
189
  8
Layer_0
  62
1
  10
141.49974
  20
182.25
  30
0
  40
1
  0
CIRCLE
  5
189
  8
Layer_0
  62
1
  10
169.74974
  20
210.75
  30
0
  40
1.5
  0
CIRCLE
  5
189
  8
Layer_0
  62
1
  10
169.74974
  20
195.75
  30
0
  40
1.5
  0
POLYLINE
  5
189
  8
Layer_0
  62
1
  66
1
  10
0
  20
0
  30
0
  0
VERTEX
  5
189
  8
Layer_0
  10
135.5
  20
208.25
  0
VERTEX
  5
18a
  8
Layer_0
  10
148
  20
208.25
  0
VERTEX
  5
18b
  8
Layer_0
  10
148
  20
184.75
  0
VERTEX
  5
18c
  8
Layer_0
  10
135.5
  20
184.75
  0
VERTEX
  5
18d
  8
Layer_0
  10
135.5
  20
208.25
  0
SEQEND
  0
POLYLINE
  5
18f
  8
Layer_0
  62
1
  66
1
  10
0
  20
0
  30
0
  0
VERTEX
  5
18f
  8
Layer_0
  10
161.13174
  20
177.25
  0
VERTEX
  5
190
  8
Layer_0
  10
161.13174
  20
177.25041
  0
SEQEND
  0
POLYLINE
  5
192
  8
Layer_0
  62
1
  66
1
  10
0
  20
0
  30
0
  0
VERTEX
  5
192
  8
Layer_0
  10
156.13174
  20
176.25
  0
VERTEX
  5
193
  8
Layer_0
  10
156.13174
  20
177.25041
  0
SEQEND
  0
POLYLINE
  5
195
  8
Layer_0
  62
1
  66
1
  10
0
  20
0
  30
0
  0
VERTEX
  5
195
  8
Layer_0
  10
176.5
  20
213.75
  0
VERTEX
  5
196
  8
Layer_0
  10
176.5
  20
179.25
  0
VERTEX
  5
197
  8
Layer_0
  10
165.63174
  20
179.25
  0
VERTEX
  5
198
  8
Layer_0
  10
165.63174
  20
184.25
  0
VERTEX
  5
199
  8
Layer_0
  10
166.88174
  20
184.25
  0
VERTEX
  5
19a
  8
Layer_0
  10
166.88174
  20
186.75
  0
VERTEX
  5
19b
  8
Layer_0
  10
161.38174
  20
186.75
  0
VERTEX
  5
19c
  8
Layer_0
  10
161.38174
  20
184.25
  0
VERTEX
  5
19d
  8
Layer_0
  10
162.63174
  20
184.25
  0
VERTEX
  5
19e
  8
Layer_0
  10
162.63174
  20
179.25
  0
VERTEX
  5
19f
  8
Layer_0
  10
161.13174
  20
179.25
  0
VERTEX
  5
1a0
  8
Layer_0
  10
161.13174
  20
176.25
  0
VERTEX
  5
1a1
  8
Layer_0
  10
156.13174
  20
176.25
  0
VERTEX
  5
1a2
  8
Layer_0
  10
156.13174
  20
179.25
  0
VERTEX
  5
1a3
  8
Layer_0
  10
154.63174
  20
179.25
  0
VERTEX
  5
1a4
  8
Layer_0
  10
154.63174
  20
184.25
  0
VERTEX
  5
1a5
  8
Layer_0
  10
155.88174
  20
184.25
  0
VERTEX
  5
1a6
  8
Layer_0
  10
155.88174
  20
186.75
  0
VERTEX
  5
1a7
  8
Layer_0
  10
150.38174
  20
186.75
  0
VERTEX
  5
1a8
  8
Layer_0
  10
150.38174
  20
184.25
  0
VERTEX
  5
1a9
  8
Layer_0
  10
151.63174
  20
184.25
  0
VERTEX
  5
1aa
  8
Layer_0
  10
151.63174
  20
179.25
  0
VERTEX
  5
1ab
  8
Layer_0
  10
133.5
  20
179.25
  0
VERTEX
  5
1ac
  8
Layer_0
  10
133.5
  20
213.75
  0
VERTEX
  5
1ad
  8
Layer_0
  10
176.5
  20
213.75
  0
SEQEND
  0
CIRCLE
  5
1af
  8
Layer_0
  62
1
  10
224.5
  20
139
  30
0
  40
1.5
  0
CIRCLE
  5
1af
  8
Layer_0
  62
1
  10
217
  20
139
  30
0
  40
3.5
  0
CIRCLE
  5
1af
  8
Layer_0
  62
1
  10
209.5
  20
139
  30
0
  40
1.5
  0
POLYLINE
  5
1af
  8
Layer_0
  62
1
  66
1
  10
0
  20
0
  30
0
  0
VERTEX
  5
1af
  8
Layer_0
  10
227
  20
145
  0
VERTEX
  5
1b0
  8
Layer_0
  10
227
  20
133
  0
VERTEX
  5
1b1
  8
Layer_0
  10
207
  20
133
  0
VERTEX
  5
1b2
  8
Layer_0
  10
207
  20
145
  0
VERTEX
  5
1b3
  8
Layer_0
  10
227
  20
145
  0
SEQEND
  0
ENDSEC
  0
EOF
